<svg width="27" height="18" viewBox="0 0 27 18" fill="none" xmlns="http://www.w3.org/2000/svg">
<path d="M2.12661 10.1172V10.1238C2.08977 10.2627 2.02591 10.393 1.93867 10.5072C1.85143 10.6215 1.74253 10.7174 1.6182 10.7895C1.49387 10.8616 1.35653 10.9085 1.21406 10.9276C1.07158 10.9466 0.926758 10.9373 0.787863 10.9003C-0.154949 10.6509 0.0113009 9.56375 0.0113009 9.56375L0.0506761 9.42813C0.0506761 9.42813 0.107551 9.24438 0.153488 9.11094C0.714847 7.537 1.54124 6.07066 2.59693 4.77531C4.55911 2.38219 7.86005 0 13.0991 0C18.3382 0 21.6391 2.38219 23.6035 4.77531C24.6592 6.07066 25.4856 7.537 26.0469 9.11094C26.094 9.2462 26.1378 9.38259 26.1782 9.52L26.1847 9.54844V9.55719L26.1869 9.56156C26.2563 9.83996 26.2135 10.1345 26.0678 10.3816C25.9221 10.6288 25.6851 10.8087 25.4079 10.8828C25.1307 10.9568 24.8355 10.919 24.5859 10.7774C24.3364 10.6358 24.1525 10.4019 24.0738 10.1259L24.0716 10.1172L24.0541 10.0625L23.9775 9.82406C23.5008 8.49521 22.8018 7.25698 21.9104 6.16219C20.2872 4.1825 17.5726 2.1875 13.0991 2.1875C8.62568 2.1875 5.91318 4.1825 4.28786 6.16219C3.39646 7.25698 2.69746 8.49521 2.22068 9.82406L2.14411 10.0625L2.12661 10.1172ZM7.63036 12.0312C7.63036 10.5808 8.20653 9.18985 9.23212 8.16426C10.2577 7.13867 11.6487 6.5625 13.0991 6.5625C14.5495 6.5625 15.9405 7.13867 16.9661 8.16426C17.9917 9.18985 18.5679 10.5808 18.5679 12.0312C18.5679 13.4817 17.9917 14.8727 16.9661 15.8982C15.9405 16.9238 14.5495 17.5 13.0991 17.5C11.6487 17.5 10.2577 16.9238 9.23212 15.8982C8.20653 14.8727 7.63036 13.4817 7.63036 12.0312Z" fill="#8D8D8D"/>
</svg>
