<svg width="31" height="31" viewBox="0 0 31 31" fill="none" xmlns="http://www.w3.org/2000/svg">
<path d="M19.9514 21.4979L28.7583 30.307C28.8599 30.4087 28.9807 30.4894 29.1135 30.5444C29.2464 30.5994 29.3888 30.6278 29.5326 30.6278C29.6764 30.6278 29.8189 30.5994 29.9517 30.5444C30.0846 30.4894 30.2053 30.4087 30.307 30.307C30.4087 30.2053 30.4894 30.0846 30.5444 29.9517C30.5994 29.8189 30.6278 29.6764 30.6278 29.5326C30.6278 29.3888 30.5994 29.2464 30.5444 29.1135C30.4894 28.9807 30.4087 28.8599 30.307 28.7583L1.86951 0.320757C1.76781 0.219064 1.64709 0.138397 1.51422 0.0833619C1.38135 0.0283264 1.23895 1.0715e-09 1.09513 0C0.951317 -1.0715e-09 0.80891 0.0283264 0.676043 0.0833619C0.543176 0.138397 0.422449 0.219064 0.320757 0.320757C0.219064 0.422449 0.138397 0.543176 0.0833619 0.676043C0.0283264 0.80891 -1.0715e-09 0.951317 0 1.09513C1.0715e-09 1.23895 0.0283264 1.38135 0.0833619 1.51422C0.138397 1.64709 0.219064 1.76781 0.320757 1.86951L7.38638 8.93513C6.42494 9.61664 5.55966 10.4245 4.81388 11.337C3.75819 12.6324 2.9318 14.0987 2.37044 15.6726C2.32451 15.8061 2.26763 15.9898 2.26763 15.9898L2.22826 16.1254C2.22826 16.1254 2.06201 17.2126 3.00482 17.462C3.28503 17.5361 3.58318 17.4959 3.83378 17.3503C4.08439 17.2047 4.26695 16.9656 4.34138 16.6854L4.34357 16.6789L4.36107 16.6242L4.43763 16.3858C4.91441 15.0569 5.61341 13.8187 6.50482 12.7239C7.20708 11.864 8.03616 11.1161 8.96357 10.5058L12.4154 13.9576C11.7189 14.3942 11.1297 14.9823 10.6917 15.678C10.2537 16.3737 9.97825 17.1592 9.88575 17.9761C9.79324 18.7929 9.88609 19.6202 10.1574 20.3962C10.4287 21.1722 10.8715 21.8771 11.4528 22.4584C12.0341 23.0397 12.739 23.4825 13.515 23.7538C14.291 24.0251 15.1183 24.118 15.9351 24.0255C16.752 23.9329 17.5375 23.6575 18.2332 23.2195C18.929 22.7815 19.517 22.1923 19.9536 21.4958M11.6411 6.99701L13.5092 8.86513C14.0765 8.7893 14.678 8.75138 15.3139 8.75138C19.7851 8.75138 22.502 10.7464 24.1251 12.7261C25.0165 13.8209 25.7155 15.0591 26.1923 16.3879C26.2288 16.4944 26.2543 16.5739 26.2689 16.6264L26.2864 16.6811V16.6876L26.2886 16.6898C26.3695 16.9628 26.5537 17.1935 26.802 17.3328C27.0504 17.4721 27.3432 17.5091 27.6184 17.4359C27.8936 17.3627 28.1293 17.1851 28.2756 16.9408C28.4219 16.6965 28.4671 16.4048 28.4017 16.1276V16.1211L28.3995 16.1123L28.3908 16.0839C28.3537 15.9455 28.3099 15.8089 28.2595 15.6748C27.6981 14.1009 26.8718 12.6345 25.8161 11.3392C23.8561 8.94607 20.5551 6.56388 15.3183 6.56388C13.9664 6.56388 12.7436 6.71919 11.6411 6.99701Z" fill="#8D8D8D"/>
</svg>
